<svg t="1746242939979" class="icon" viewBox="0 0 1024 1024" version="1.1" xmlns="http://www.w3.org/2000/svg" p-id="8362"
   width="200" height="200">
   <path d="M57.77069567 318.95254506l310.39002396-287.67855917v522.36370042l-310.39002396 264.96709429z" fill="#F7E94C"
      p-id="8363"></path>
   <path
      d="M352.71692354 14.61891142l-310.39002398 287.67855912A22.7114648 22.7114648 0 0 0 35.05923087 318.95254506v499.65223555c0 19.38045091 22.7114648 29.85800692 37.45877524 17.27585533l310.39002557-264.96709592A22.7114648 22.7114648 0 0 0 390.87218606 553.6376863V31.27398588c0-19.81953865-23.61992362-30.13054331-38.15526252-16.65507446zM345.44925484 83.28324179v459.87688843l-264.96709432 226.19105255V328.8623144L345.44925484 83.28324179z"
      fill="#221937" p-id="8364"></path>
   <path d="M368.16071963 553.6376863l582.92760809 204.40318653V205.3952194L368.16071963 31.27398588z" fill="#72DDF5"
      p-id="8365"></path>
   <path
      d="M345.44925484 31.27398588v522.36370042a22.7114648 22.7114648 0 0 0 15.19397059 21.43205233l582.92760816 204.40318815c14.77002287 5.17821477 30.22896065-5.78385394 30.228959-21.43205395V205.3952194a22.7114648 22.7114648 0 0 0-16.20841595-21.76515358l-582.92760654-174.12123346A22.7114648 22.7114648 0 0 0 345.44925484 31.27398588z m45.42293122 30.48635699l537.50467688 160.5473474v503.69487676l-537.50467688-188.47487932V61.76034287z"
      fill="#221937" p-id="8366"></path>
   <path d="M57.77069567 818.6047806l545.07516519 181.69172175 348.24246686-242.25562952-582.92760809-204.40318652z"
      fill="#F55C92" p-id="8367"></path>
   <path
      d="M353.4134092 536.36183096l-310.39002554 264.96709431c-13.43761631 11.47685975-9.1981436 33.23444414 7.57048829 38.82146503l545.07516675 181.69172172a22.7114648 22.7114648 0 0 0 20.14506908-2.89949695l348.24246688-242.25562953c15.21668141-10.5835426 12.03707731-33.94606986-5.45075107-40.07816506l-582.9276082-204.40318654a22.7114648 22.7114648 0 0 0-22.25723538 4.16376784z m19.54700069 43.03065608l528.67748698 185.37855096-302.41072954 210.37630277-496.13195769-165.37732089 269.86520025-230.37753284z"
      fill="#221937" p-id="8368"></path>
   <path
      d="M110.7641136 652.05403546a15.14097656 15.14097656 0 1 1 0 30.28195304 15.14097656 15.14097656 0 0 1 0-30.28195304z m60.56390778-52.99341955a15.14097656 15.14097656 0 1 1 0 30.28195472 15.14097656 15.14097656 0 0 1 0-30.28195472z m-60.56390778-37.85244134a15.14097656 15.14097656 0 1 1 0 30.28195307 15.14097656 15.14097656 0 0 1 0-30.28195307z m121.12781555-7.57048827a15.14097656 15.14097656 0 1 1 0 30.28195308 15.14097656 15.14097656 0 0 1 0-30.28195308z m-60.56390777-45.42293124a15.14097656 15.14097656 0 1 1 0 30.28195468 15.14097656 15.14097656 0 0 1 0-30.28195468z m121.12781393 0a15.14097656 15.14097656 0 1 1 0 30.28195468 15.14097656 15.14097656 0 0 1 0-30.28195468z m-181.69172171-30.28195308a15.14097656 15.14097656 0 1 1 0 30.28195308 15.14097656 15.14097656 0 0 1 0-30.28195308z m121.12781555-15.14097655a15.14097656 15.14097656 0 1 1 0 30.28195308 15.14097656 15.14097656 0 0 1 0-30.28195308z m-60.56390777-37.85244135a15.14097656 15.14097656 0 1 1 0 30.28195306 15.14097656 15.14097656 0 0 1 0-30.28195306z m121.12781393-7.57048985a15.14097656 15.14097656 0 1 1 0 30.28195465 15.14097656 15.14097656 0 0 1 0-30.28195465z m-181.69172171-15.14097658a15.14097656 15.14097656 0 1 1 0 30.28195471 15.14097656 15.14097656 0 0 1 0-30.28195471z m121.12781555-22.71146482a15.14097656 15.14097656 0 1 1 0 30.28195309 15.14097656 15.14097656 0 0 1 0-30.28195309z m-52.9934195-30.28195306a15.14097656 15.14097656 0 1 1 0 30.28195306 15.14097656 15.14097656 0 0 1 0-30.28195306z m-68.13439605-15.14097815a15.14097656 15.14097656 0 1 1 0 30.28195467 15.14097656 15.14097656 0 0 1 0-30.28195467z m181.69172171 0a15.14097656 15.14097656 0 1 1 0 30.28195467 15.14097656 15.14097656 0 0 1 0-30.28195467z m-52.99341791-30.28195311a15.14097656 15.14097656 0 1 1 0 30.28195311 15.14097656 15.14097656 0 0 1 0-30.28195311z m-68.13439602-22.71146481a15.14097656 15.14097656 0 1 1 0 30.28195312 15.14097656 15.14097656 0 0 1 0-30.28195312z m121.12781393-15.14097653a15.14097656 15.14097656 0 1 1 0 30.28195305 15.14097656 15.14097656 0 0 1 0-30.28195305z m-60.56390616-30.2819547a15.14097656 15.14097656 0 1 1 0 30.2819547 15.14097656 15.14097656 0 0 1 0-30.2819547z m60.56390616-45.42292964a15.14097656 15.14097656 0 1 1 0 30.28195312 15.14097656 15.14097656 0 0 1 0-30.28195312z"
      fill="#221937" p-id="8369"></path>
</svg>